<svg width="40" height="40" viewBox="0 0 40 40" fill="none" xmlns="http://www.w3.org/2000/svg">
<path d="M0 10.0655V14.4444H6.25333L0 10.0655ZM5.18222 34.4444H14.4444V27.9589L5.18222 34.4444ZM25.5556 27.96V34.4444H34.8167L25.5556 27.96ZM0 25.5555V29.9344L6.25556 25.5555H0ZM34.8189 5.55554H25.5556V12.0411L34.8189 5.55554ZM40 29.9355V25.5555H33.7433L40 29.9355ZM40 14.4444V10.0655L33.7456 14.4444H40ZM14.4444 5.55554H5.18222L14.4444 12.0411V5.55554Z" fill="#00247D"/>
<path d="M27.9335 25.5556L38.7246 33.1122C39.2516 32.5693 39.6303 31.9002 39.8246 31.1689L31.8079 25.5556H27.9335ZM14.4446 25.5556H12.0657L1.27567 33.1111C1.85456 33.7 2.59678 34.1211 3.42901 34.3167L14.4446 26.6033V25.5556ZM25.5557 14.4445H27.9346L38.7246 6.88891C38.1357 6.29143 37.3894 5.87338 36.5723 5.68335L25.5557 13.3967V14.4445ZM12.0657 14.4445L1.27567 6.88891C0.748953 7.43221 0.36991 8.10118 0.174561 8.83224L8.19123 14.4445H12.0657Z" fill="#CF1B2B"/>
<path d="M40 23.3333H23.3333V34.4444H25.5556V27.96L34.8167 34.4444H35.5556C36.1459 34.4445 36.7302 34.3267 37.2744 34.098C37.8185 33.8692 38.3115 33.5341 38.7244 33.1122L27.9333 25.5555H31.8078L39.8244 31.1689C39.9278 30.7944 40 30.4067 40 30V29.9355L33.7433 25.5555H40V23.3333ZM0 23.3333V25.5555H6.25556L0 29.9344V30C0 31.2122 0.487778 32.3089 1.27556 33.1111L12.0656 25.5555H14.4444V26.6033L3.42889 34.3155C3.75556 34.3933 4.09333 34.4444 4.44444 34.4444H5.18222L14.4444 27.9589V34.4444H16.6667V23.3333H0ZM40 9.99999C40.0007 8.83552 39.5424 7.71771 38.7244 6.88888L27.9344 14.4444H25.5556V13.3967L36.5722 5.68332C36.2394 5.60168 35.8982 5.55881 35.5556 5.55554H34.8189L25.5556 12.0411V5.55554H23.3333V16.6667H40V14.4444H33.7456L40 10.0655V9.99999ZM14.4444 5.55554V12.0411L5.18222 5.55554H4.44444C3.85403 5.55529 3.26952 5.67311 2.72531 5.90209C2.1811 6.13107 1.68818 6.46658 1.27556 6.88888L12.0656 14.4444H8.19111L0.174444 8.83221C0.0642002 9.21189 0.00552601 9.60467 0 9.99999L0 10.0655L6.25333 14.4444H0V16.6667H16.6667V5.55554H14.4444Z" fill="#EEEEEE"/>
<path d="M23.3333 16.6667V5.55554H16.6667V16.6667H0V23.3333H16.6667V34.4444H23.3333V23.3333H40V16.6667H23.3333Z" fill="#CF1B2B"/>
</svg>
