<svg width="40" height="40" viewBox="0 0 40 40" fill="none" xmlns="http://www.w3.org/2000/svg">
<path d="M0 15.625H40V24.375H0V15.625Z" fill="#E6E7E8"/>
<path d="M33.75 6.25H6.25C2.10813 6.25 0 9.32813 0 13.125V15.625H40V13.125C40 9.32813 37.8919 6.25 33.75 6.25Z" fill="#EC1C24"/>
<path d="M0 26.875C0 30.6719 2.10813 33.75 6.25 33.75H33.75C37.8919 33.75 40 30.6719 40 26.875V24.375H0V26.875Z" fill="#1B75BB"/>
<path fill-rule="evenodd" clip-rule="evenodd" d="M25.3436 22.3881C25.3561 23.3474 25.0973 24.2337 24.6361 25.0674C24.5967 25.1406 24.5611 25.2124 24.523 25.2862C24.3273 25.5306 24.1767 25.8099 23.9417 26.0237C23.8823 26.0274 23.8742 25.9868 23.8698 25.9418C23.8798 25.8306 23.9517 25.7524 24.0142 25.6681C24.7867 24.6624 25.168 23.5293 25.1623 22.2587C25.1536 20.2924 25.1605 18.3268 25.1605 16.3624C25.1605 16.2856 25.1548 16.2099 25.1605 16.1368C25.1736 15.9587 25.1067 15.8643 24.9161 15.8843C24.8642 15.8881 24.8117 15.8843 24.7586 15.8843H14.6036C14.3498 15.8893 14.3411 15.8956 14.3398 16.1556C14.3367 17.6324 14.3398 19.1118 14.3398 20.5906C14.3398 21.1518 14.3423 21.7149 14.338 22.2774C14.3311 23.5399 14.7173 24.6662 15.4836 25.6662C15.5473 25.7493 15.6186 25.8287 15.6305 25.9399C15.6261 25.9849 15.618 26.0256 15.5598 26.0218C15.3261 25.8093 15.1736 25.5312 14.9786 25.2868C14.6298 24.6643 14.3536 24.0149 14.2323 23.3031C14.1782 22.9779 14.1508 22.6489 14.1505 22.3193C14.1492 20.1474 14.1505 17.9737 14.1505 15.8018C14.1505 15.7712 14.1548 15.7393 14.1561 15.7112C14.2342 15.6649 14.3173 15.6868 14.3998 15.6868H25.0936C25.3886 15.6868 25.3567 15.6562 25.3567 15.9531C25.358 18.0162 25.358 20.0806 25.3567 22.1443C25.3573 22.2249 25.3698 22.3074 25.3436 22.3881Z" fill="#FE0505"/>
<path fill-rule="evenodd" clip-rule="evenodd" d="M15.563 26.0212C15.5792 26.0043 15.5949 25.9856 15.6099 25.9687C15.7449 25.9518 15.8117 26.0569 15.8861 26.135C16.7649 27.0394 17.8317 27.5806 19.0799 27.7231C20.7599 27.915 22.2361 27.4437 23.4736 26.2775C23.5986 26.1593 23.6824 25.9775 23.8917 25.97C23.9086 25.9868 23.9255 26.0056 23.9417 26.0237C23.1405 26.9637 22.1255 27.5694 20.9217 27.8062C18.8486 28.2162 17.0736 27.6231 15.6117 26.0962C15.5911 26.075 15.5805 26.0468 15.5636 26.0212" fill="#FA0406"/>
<path fill-rule="evenodd" clip-rule="evenodd" d="M26.4624 12.6412L26.4037 12.7793C26.0143 13.6618 25.6199 14.5431 25.2405 15.4318C25.1699 15.5956 25.0999 15.5868 24.9599 15.5256C23.1293 14.7262 21.2131 14.3781 19.2199 14.455C17.5949 14.52 16.0312 14.8712 14.5387 15.5281C14.3905 15.5937 14.3306 15.5831 14.2624 15.4256C13.8842 14.5456 13.4987 13.6687 13.1062 12.795C13.0562 12.6825 13.0562 12.5962 13.1256 12.4875C13.4064 12.0544 13.6779 11.6153 13.9399 11.1706C14.0218 11.0287 14.0968 11.0337 14.2249 11.0825C14.6506 11.2487 15.0793 11.3987 15.5037 11.5681C15.6443 11.6231 15.7256 11.6118 15.8262 11.49C16.1224 11.1312 16.4399 10.7906 16.7381 10.4343C16.8306 10.3206 16.8993 10.3218 17.0143 10.3906C17.4149 10.6287 17.8231 10.8481 18.2206 11.0875C18.3418 11.1593 18.4181 11.1643 18.5306 11.0693C18.8893 10.7618 19.263 10.4725 19.623 10.1675C19.7262 10.0781 19.7856 10.0843 19.8856 10.1687C20.2399 10.47 20.6068 10.7537 20.9605 11.0575C21.0743 11.1537 21.1537 11.1712 21.2893 11.0881C21.6912 10.8425 22.108 10.6206 22.5137 10.38C22.618 10.3187 22.6749 10.3262 22.7562 10.42C23.0599 10.78 23.3787 11.1306 23.6824 11.4918C23.773 11.5993 23.8456 11.63 23.9837 11.5737C24.4287 11.3981 24.8818 11.2418 25.3293 11.0693C25.4318 11.0293 25.4831 11.04 25.5418 11.1387C25.8256 11.6062 26.1162 12.0675 26.4049 12.5337C26.4274 12.5687 26.4456 12.6093 26.4624 12.6412Z" fill="#FEFDFE"/>
<path fill-rule="evenodd" clip-rule="evenodd" d="M25.3437 22.388C25.3393 22.2918 25.3299 22.1937 25.3299 22.0962C25.3287 20.048 25.3268 17.9993 25.3312 15.9512C25.333 15.7755 25.2993 15.7037 25.1005 15.7037C21.4537 15.7112 17.8068 15.7087 14.1599 15.7112C14.1449 15.6971 14.1293 15.6838 14.113 15.6712C14.2393 15.6674 14.3668 15.6649 14.4937 15.6649H25.1687C25.2437 15.6649 25.3168 15.6674 25.3918 15.6712C25.3449 15.7624 25.3643 15.863 25.3643 15.958C25.363 18.0137 25.363 20.0668 25.363 22.1224C25.363 22.2112 25.3505 22.2993 25.3437 22.388Z" fill="#FE2D2D"/>
<path fill-rule="evenodd" clip-rule="evenodd" d="M23.8938 25.9699C23.2863 26.6168 22.5919 27.1331 21.7606 27.4631C19.7138 28.2737 17.3419 27.7624 15.8206 26.1718C15.7525 26.1024 15.6813 26.0362 15.6119 25.9693C15.0044 25.2281 14.5638 24.4043 14.3738 23.4568C14.2988 23.097 14.26 22.7306 14.2581 22.3631C14.26 20.2393 14.2613 18.1149 14.2556 15.9924C14.2544 15.8231 14.2988 15.7837 14.4656 15.7837C17.9919 15.7887 21.5188 15.7887 25.0463 15.7837C25.2169 15.7837 25.2531 15.8287 25.2531 15.9949C25.2475 18.1031 25.2463 20.2112 25.2494 22.3193C25.25 23.7056 24.7706 24.9099 23.8938 25.9687" fill="#FEFEFE"/>
<path fill-rule="evenodd" clip-rule="evenodd" d="M16.5319 14.7306C15.8606 14.9137 15.1975 15.1249 14.5588 15.4031C14.4406 15.4543 14.3931 15.4362 14.3431 15.3199C13.9731 14.4685 13.5987 13.6189 13.22 12.7712C13.1781 12.6762 13.1838 12.6062 13.2375 12.5224C13.495 12.1174 13.7488 11.7106 13.9938 11.2981C14.0619 11.1831 14.1275 11.1699 14.2438 11.2137C14.6844 11.3824 15.1275 11.5418 15.5713 11.7056C15.625 11.7249 15.6769 11.7631 15.7406 11.7481C15.7506 11.7531 15.76 11.7612 15.77 11.7674C15.8906 11.9981 15.9081 12.2593 15.9869 12.5012C16.0594 12.7381 16.1238 12.9774 16.1694 13.2199C16.2138 13.4749 16.31 13.7168 16.35 13.9706C16.3919 14.2293 16.5431 14.4612 16.5319 14.7306Z" fill="#0092DC"/>
<path fill-rule="evenodd" clip-rule="evenodd" d="M21.1168 11.3187C21.5699 11.0575 22.0255 10.7975 22.4774 10.5337C22.5737 10.4775 22.6393 10.4594 22.7237 10.5594C23.0674 10.9644 23.4187 11.3625 23.768 11.7656C23.8055 11.8069 23.8093 11.8606 23.7999 11.9119C23.743 12.1937 23.6705 12.4744 23.5887 12.7506C23.5749 12.8031 23.5312 12.8362 23.4974 12.8737C23.4837 12.9362 23.4693 12.9969 23.4568 13.0569C23.4899 13.3199 23.4235 13.5859 23.2705 13.8025C23.2224 13.8731 23.2168 13.9525 23.2205 14.0369C23.2074 14.2844 23.203 14.5362 23.0112 14.7325C22.3016 14.5771 21.5844 14.459 20.8624 14.3787C20.7762 14.2625 20.8068 14.1331 20.8212 14.0062C20.8605 13.8881 20.8655 13.7656 20.853 13.6412C20.8493 13.5798 20.8544 13.5181 20.868 13.4581C20.9025 13.3423 20.9129 13.2206 20.8987 13.1006C20.893 13.0381 20.9018 12.9775 20.9124 12.9175C20.9524 12.8 20.9524 12.6794 20.943 12.56C20.9393 12.4985 20.9444 12.4369 20.958 12.3769C20.998 12.2619 20.9974 12.1412 20.9887 12.0219C20.9845 11.9617 20.9891 11.9013 21.0024 11.8425C21.0424 11.7312 21.0405 11.6156 21.0387 11.5006C21.0405 11.43 21.0505 11.3606 21.1168 11.3187Z" fill="#171795"/>
<path fill-rule="evenodd" clip-rule="evenodd" d="M21.0599 11.8387C21.0568 11.8987 21.0556 11.9568 21.0524 12.0156C21.0024 12.1337 21.0662 12.2624 21.0137 12.3781C21.0118 12.4381 21.0093 12.4974 21.0062 12.5562C20.9581 12.6737 21.0212 12.8031 20.9687 12.9187L20.9612 13.0968C20.9131 13.2143 20.9762 13.3437 20.9237 13.4593L20.9149 13.6374C20.8668 13.7549 20.9299 13.8843 20.8774 13.9987C20.8718 14.1268 20.8662 14.2512 20.8593 14.3768C20.1784 14.3421 19.4963 14.3377 18.8149 14.3637C18.5687 14.4306 18.6256 14.2162 18.5687 14.1049C18.5564 14.0542 18.5511 14.0021 18.5531 13.9499C18.5562 13.8118 18.5756 13.6756 18.5199 13.5437C18.4743 13.3324 18.4362 13.1187 18.4643 12.9018L18.4668 12.8274C18.4668 12.7081 18.4768 12.5868 18.4349 12.4724C18.4219 12.4248 18.4169 12.3754 18.4199 12.3262C18.4268 12.2043 18.4299 12.0831 18.3849 11.9662C18.3668 11.7687 18.2849 11.5731 18.3531 11.3706C18.366 11.3484 18.3835 11.3293 18.4043 11.3143C18.8081 10.9812 19.2174 10.6524 19.6174 10.3156C19.7156 10.2299 19.7756 10.2262 19.8787 10.3106C20.2856 10.6524 20.7012 10.9818 21.1143 11.3174C21.1087 11.3699 21.1018 11.4224 21.0949 11.4774C21.0493 11.5937 21.1124 11.7231 21.0599 11.8387ZM23.4968 12.8731L23.7681 11.7649C24.2524 11.5881 24.7393 11.4131 25.2231 11.2306C25.3581 11.1793 25.4399 11.1718 25.5256 11.3231C25.7506 11.7199 25.9956 12.1068 26.2456 12.4912C26.3218 12.6074 26.3218 12.6987 26.2618 12.8181C26.1618 13.0193 26.0574 13.2212 25.9918 13.4356C25.9212 13.6687 25.8168 13.6574 25.6237 13.5724C24.9989 13.2997 24.3533 13.0776 23.6931 12.9081C23.6299 12.8899 23.5618 12.8849 23.4968 12.8731Z" fill="#0092DC"/>
<path fill-rule="evenodd" clip-rule="evenodd" d="M23.01 14.7319C23.0906 14.5025 23.0906 14.25 23.2194 14.0363C23.8406 14.1463 24.4263 14.3744 25.0094 14.6025C25.4044 14.7575 25.4031 14.7613 25.2344 15.1444C25.0925 15.4669 25.0913 15.4669 24.7675 15.3275C24.1969 15.085 23.6006 14.9188 23.01 14.7319Z" fill="#0093DC"/>
<path fill-rule="evenodd" clip-rule="evenodd" d="M18.6249 13.9531C18.6267 13.9994 18.6292 14.0456 18.6324 14.0913C18.6542 14.19 18.663 14.2888 18.628 14.3844C17.9217 14.45 17.2242 14.5725 16.533 14.7313C16.3911 14.5044 16.3567 14.2444 16.2911 13.9938C16.3561 13.9119 16.4511 13.8913 16.5467 13.8669C17.1292 13.7219 17.723 13.6456 18.3174 13.5725C18.4067 13.5613 18.498 13.5569 18.5761 13.6175C18.643 13.7213 18.5649 13.8481 18.6249 13.9531ZM18.4067 11.3125L18.3874 11.3163C18.343 11.42 18.2442 11.4113 18.158 11.4213C17.4469 11.4955 16.741 11.6132 16.0442 11.7738C15.9442 11.7969 15.8399 11.8275 15.748 11.7431L15.7405 11.7469C16.0767 11.3625 16.4192 10.985 16.7436 10.5931C16.8511 10.465 16.9274 10.47 17.0592 10.5481C17.5049 10.8106 17.9574 11.0581 18.4067 11.3125Z" fill="#171795"/>
<path fill-rule="evenodd" clip-rule="evenodd" d="M23.2686 13.7999C23.3317 13.5524 23.3923 13.3031 23.4548 13.0543C24.2086 13.2462 24.9411 13.4962 25.6554 13.7999C25.7836 13.8562 25.7917 13.9037 25.7373 14.0099C25.6498 14.1818 25.6154 14.4374 25.4779 14.5156C25.3336 14.5962 25.1298 14.4068 24.9523 14.3399C24.3992 14.1343 23.8429 13.9418 23.2686 13.7999Z" fill="#FD0101"/>
<path fill-rule="evenodd" clip-rule="evenodd" d="M18.6279 14.3875L18.6323 14.0944C18.7154 14.1712 18.6042 14.38 18.8173 14.3681C18.7591 14.3989 18.6912 14.4058 18.6279 14.3875Z" fill="#3898D9"/>
<path fill-rule="evenodd" clip-rule="evenodd" d="M25.025 16.0175C25.0268 16.7363 25.025 17.4531 25.035 18.1719C25.0368 18.3194 24.9643 18.3194 24.8562 18.3194C24.2206 18.3156 23.5856 18.3156 22.9487 18.3156C22.9018 18.0556 22.9325 17.7944 22.9293 17.5331C22.9225 17.0769 22.9281 16.62 22.9268 16.1625C22.9268 16.0756 22.9225 15.9975 23.0487 16.0013C23.7081 16.0138 24.3662 15.9819 25.025 16.0175Z" fill="#FE0000"/>
<path fill-rule="evenodd" clip-rule="evenodd" d="M16.5986 18.3187H18.6705C18.743 18.3812 18.7361 18.4675 18.7361 18.5481C18.7374 19.1606 18.7386 19.7762 18.7361 20.39C18.7342 20.6387 18.6917 20.6818 18.448 20.6831C17.9092 20.6893 17.3692 20.6893 16.8317 20.6831C16.5924 20.6818 16.5774 20.6625 16.5774 20.4256C16.5761 19.7819 16.5761 19.1381 16.5774 18.4944C16.5774 18.4356 16.5636 18.3737 16.5986 18.3187Z" fill="#FE0101"/>
<path fill-rule="evenodd" clip-rule="evenodd" d="M20.8312 18.3187C21.5218 18.3187 22.2131 18.3187 22.9031 18.3212C22.94 18.3737 22.9243 18.4362 22.9243 18.4956C22.9256 19.1462 22.9212 19.7968 22.9281 20.4487C22.93 20.6087 22.8825 20.6844 22.7156 20.6844C22.1456 20.6844 21.5775 20.6856 21.0093 20.6844C20.8387 20.6831 20.7656 20.6 20.7656 20.4344C20.7643 19.7912 20.7631 19.1462 20.7675 18.5044C20.7675 18.4344 20.7731 18.3675 20.8312 18.3187Z" fill="#FE0000"/>
<path fill-rule="evenodd" clip-rule="evenodd" d="M25.0186 20.6625C25.0365 21.3711 25.0357 22.0801 25.0161 22.7887C25.0117 22.9256 24.9649 22.9656 24.8299 22.9643C24.1986 22.9568 23.5736 22.9606 22.9486 22.9606C22.8767 22.8993 22.8849 22.8143 22.8836 22.7312C22.8824 22.1187 22.8792 21.5068 22.8855 20.8931C22.8855 20.655 22.9042 20.6406 23.1424 20.6406H24.8467C24.9049 20.64 24.9674 20.6281 25.0211 20.6625M16.5536 22.9581C15.973 22.9581 15.3924 22.9581 14.8111 22.9593C14.493 22.9593 14.493 22.9593 14.4749 22.6481C14.4399 22.0231 14.4705 21.3918 14.4599 20.7606C14.4567 20.6581 14.5111 20.6375 14.5992 20.6375C15.2142 20.6387 15.8292 20.6412 16.443 20.6375C16.6117 20.6362 16.6167 20.7462 16.6199 20.8618C16.6236 21.1912 16.6211 21.5212 16.6211 21.8506C16.6211 22.135 16.6224 22.4206 16.6199 22.705C16.618 22.7937 16.633 22.8875 16.5536 22.9568M20.7874 27.5062C20.1057 27.6579 19.3992 27.6583 18.7174 27.5075C18.6661 27.2256 18.7024 26.9425 18.698 26.6593C18.6911 26.2531 18.7011 25.8487 18.6924 25.445C18.6911 25.2987 18.748 25.2387 18.8874 25.2375C19.4655 25.2337 20.0424 25.2337 20.6192 25.2387C20.7386 25.2387 20.8149 25.2781 20.8142 25.4231C20.8099 26.0968 20.8142 26.7706 20.8117 27.4443C20.8111 27.4693 20.7967 27.4868 20.7874 27.5062Z" fill="#FE0000"/>
<path fill-rule="evenodd" clip-rule="evenodd" d="M20.7873 27.5063C20.7873 26.84 20.783 26.1719 20.7917 25.5069C20.793 25.3556 20.758 25.2981 20.5942 25.3006C20.033 25.3106 19.4717 25.3106 18.9105 25.3006C18.7448 25.2981 18.713 25.3581 18.7148 25.5081C18.723 26.1756 18.7186 26.8413 18.7186 27.5075C18.6336 27.4463 18.6761 27.3563 18.6761 27.2819C18.6699 26.6902 18.6704 26.0985 18.6773 25.5069C18.6786 25.3556 18.6423 25.3006 18.4805 25.3031C17.9192 25.3144 17.3573 25.3144 16.7961 25.3031C16.633 25.3006 16.5961 25.3556 16.6005 25.5081C16.6105 25.8363 16.6017 26.1675 16.6005 26.4944C16.6005 26.5019 16.5973 26.5125 16.593 26.5138C16.5817 26.5188 16.5698 26.5175 16.558 26.5175C16.4261 26.3281 16.4805 26.1113 16.4761 25.9056C16.4623 25.3219 16.5373 25.3931 15.9592 25.3856C15.7798 25.3844 15.6011 25.3969 15.423 25.3525C15.363 25.1975 15.498 25.2656 15.5386 25.2644C15.8148 25.2569 16.0936 25.2531 16.3711 25.2631C16.518 25.2681 16.563 25.2219 16.563 25.0738C16.5548 24.3694 16.5586 23.6625 16.5586 22.9581C16.5586 22.255 16.5561 21.5506 16.5617 20.8475C16.563 20.7038 16.5242 20.6519 16.3742 20.6531C15.8205 20.6619 15.2667 20.6631 14.7117 20.6531C14.5411 20.6506 14.4811 20.6925 14.4842 20.8763C14.4942 21.4644 14.483 22.0569 14.4798 22.6475C14.408 22.3225 14.4548 21.9931 14.4448 21.665C14.4361 21.3819 14.4517 21.0975 14.4405 20.8131C14.4348 20.6531 14.4917 20.6081 14.648 20.6106C15.2161 20.6181 15.7842 20.6069 16.353 20.6181C16.5255 20.6206 16.5661 20.5681 16.563 20.4031C16.5548 19.7088 16.5586 19.0125 16.5586 18.3156C16.5382 18.2965 16.5215 18.2738 16.5092 18.2488C16.463 18.1413 16.4742 18.0275 16.4723 17.9156C16.4711 17.3919 16.4698 16.8681 16.4742 16.3444C16.4742 16.1688 16.4073 16.1063 16.2348 16.1088C15.7548 16.115 15.2761 16.1125 14.7973 16.1088C14.6317 16.1075 14.573 16.1744 14.573 16.3369C14.5742 16.8594 14.5755 17.3856 14.573 17.9094C14.573 18.0219 14.5842 18.1338 14.5417 18.2413C14.53 18.2668 14.5142 18.2902 14.4948 18.3106C14.413 18.2694 14.4448 18.1931 14.4448 18.1325C14.4436 17.4806 14.4505 16.8288 14.4405 16.1781C14.4361 16.0025 14.5017 15.9656 14.663 15.9681C15.238 15.9769 15.8148 15.9781 16.3917 15.9669C16.5605 15.9644 16.6105 16.0169 16.6073 16.1844C16.5992 16.8963 16.603 17.6075 16.603 18.3169C16.603 19.0075 16.6086 19.6975 16.6005 20.3881C16.5992 20.5531 16.6267 20.6263 16.8186 20.62C17.3662 20.6069 17.9141 20.6069 18.4617 20.62C18.6511 20.6263 18.6798 20.5531 18.6786 20.3881C18.6698 19.6975 18.6755 19.0075 18.6755 18.3169C18.6755 17.6063 18.6798 16.895 18.6698 16.1831C18.6686 16.0125 18.723 15.9644 18.8898 15.9669C19.4667 15.9769 20.0436 15.9769 20.6205 15.9669C20.7873 15.9644 20.8417 16.0119 20.8392 16.1819C20.8317 16.895 20.8361 17.6063 20.8373 18.3169C20.8361 19.015 20.8405 19.7144 20.8336 20.4119C20.8305 20.5594 20.8611 20.6231 21.028 20.6194C21.5904 20.6092 22.153 20.6096 22.7155 20.6206C22.8836 20.6231 22.9098 20.5594 22.9098 20.4119C22.9042 19.715 22.9086 19.0156 22.9098 18.3194L22.9061 16.1625C22.9061 16.0588 22.9017 15.9681 23.0517 15.9694C23.6886 15.9756 24.3248 15.9731 24.9611 15.9731C24.9936 15.9731 25.0186 15.9863 25.0305 16.0169C24.3923 16.0144 23.7548 16.0156 23.118 16.0069C22.9667 16.0056 22.9473 16.075 22.9486 16.2C22.9542 16.9056 22.953 17.6113 22.9542 18.3156C22.953 19.0213 22.9561 19.7244 22.9473 20.4288C22.9461 20.5725 22.9873 20.6206 23.1367 20.6194C23.6911 20.6106 24.2436 20.6144 24.7986 20.6181C24.8748 20.6194 24.9642 20.5769 25.0261 20.6619C24.3948 20.6619 23.7636 20.6644 23.1386 20.6581C22.993 20.6569 22.9455 20.6994 22.9467 20.8488C22.9555 21.5519 22.9523 22.2563 22.9536 22.9606C22.9523 23.6638 22.9567 24.3681 22.9467 25.0713C22.9436 25.2375 23.0092 25.2725 23.1567 25.2669C23.433 25.2569 23.7111 25.2631 23.9873 25.2656C24.0336 25.2669 24.1336 25.2288 24.0861 25.35C23.828 25.4125 23.5648 25.3769 23.3036 25.3856C23.0536 25.3944 23.0436 25.4025 23.038 25.6581C23.0355 25.8375 23.0367 26.0169 23.038 26.1975C23.0423 26.3103 23.0126 26.4217 22.953 26.5175C22.8642 26.4906 22.9086 26.4138 22.9086 26.3663C22.9007 26.0667 22.9002 25.7671 22.9073 25.4675C22.9117 25.3369 22.8648 25.3038 22.7405 25.305C22.1723 25.31 21.6023 25.3125 21.0342 25.3038C20.8767 25.3 20.8286 25.3438 20.8311 25.5025C20.8411 26.1006 20.8355 26.7 20.833 27.3006C20.8305 27.3694 20.8667 27.4513 20.7873 27.5063Z" fill="#FE7F7F"/>
<path fill-rule="evenodd" clip-rule="evenodd" d="M15.4187 25.3519C15.6387 25.2456 15.8706 25.3137 16.0956 25.3081C16.5537 25.295 16.5537 25.3044 16.5537 25.755V26.5169C16.0943 26.2081 15.7356 25.8 15.4187 25.3519Z" fill="#FE0000"/>
<path fill-rule="evenodd" clip-rule="evenodd" d="M22.9486 26.5188C22.9474 26.1744 22.9505 25.8313 22.943 25.4888C22.9405 25.3594 22.968 25.2931 23.1136 25.3069C23.4349 25.3388 23.763 25.2544 24.0811 25.3519C23.763 25.7981 23.4043 26.2063 22.9486 26.5188Z" fill="#FE0202"/>
<path fill-rule="evenodd" clip-rule="evenodd" d="M16.5417 18.2749C16.5447 18.2886 16.5489 18.302 16.5542 18.3149C15.8661 18.3137 15.1774 18.3124 14.4905 18.3099C14.4917 18.298 14.4936 18.2861 14.4961 18.2743C14.5686 18.1899 14.668 18.1899 14.7661 18.1887C15.268 18.1837 15.7705 18.1837 16.2742 18.1887C16.3705 18.1906 16.4699 18.1906 16.5417 18.2749Z" fill="#FE0101"/>
<path fill-rule="evenodd" clip-rule="evenodd" d="M15.75 11.745C16.3637 11.6337 16.97 11.4812 17.5912 11.4119C17.8581 11.3812 18.1238 11.3494 18.3888 11.3181C18.4106 11.5344 18.4331 11.7512 18.4537 11.9675C18.4731 12.0212 18.4775 12.0712 18.4481 12.1212C18.1912 12.2362 17.9087 12.215 17.6394 12.2569C17.1662 12.3287 16.6969 12.4106 16.2312 12.5156C16.1325 12.5375 16.03 12.585 15.9312 12.5131C15.8481 12.2625 15.7669 12.0125 15.75 11.745Z" fill="#FE0000"/>
<path fill-rule="evenodd" clip-rule="evenodd" d="M15.93 12.5124C16.7509 12.2964 17.5898 12.1559 18.4362 12.0924C18.5056 12.1605 18.4331 12.2599 18.4862 12.3318L18.495 12.4687C18.5431 12.5868 18.4756 12.7174 18.535 12.8349C18.5322 12.8451 18.5275 12.8546 18.5212 12.863C18.4668 12.9387 18.3831 12.9437 18.3 12.9537C17.6514 13.0218 17.0072 13.127 16.3706 13.2687C16.2831 13.288 16.1931 13.3099 16.1125 13.2443C16.0515 13.0003 15.9903 12.7563 15.9287 12.5124" fill="#171795"/>
<path fill-rule="evenodd" clip-rule="evenodd" d="M16.1138 13.2437C16.9081 13.0655 17.7063 12.9055 18.5225 12.863C18.5444 13.0899 18.565 13.3187 18.5875 13.5468C18.6038 13.5799 18.6094 13.6093 18.5738 13.6324C17.8491 13.6902 17.1302 13.8053 16.4238 13.9768C16.3813 13.9868 16.3363 13.9893 16.2919 13.9937C16.2331 13.7443 16.1719 13.4943 16.1138 13.2437Z" fill="#FE0000"/>
<path fill-rule="evenodd" clip-rule="evenodd" d="M14.7973 14.4062C14.5892 14.3587 14.4055 14.2681 14.2942 14.0719C14.2792 14.045 14.1855 14.045 14.2511 13.9837C14.3055 13.9337 14.3192 14.0081 14.3542 14.0237C14.4392 14.0637 14.5042 14.1494 14.6123 14.1337C14.7698 14.1644 14.9255 14.1694 15.0811 14.1275C15.3323 14.03 15.5173 13.865 15.6067 13.6037C15.6648 13.5331 15.5936 13.4331 15.6623 13.3631C15.683 13.3425 15.7023 13.3325 15.6811 13.3544C15.6798 13.3556 15.693 13.375 15.698 13.3887V13.3937C15.738 13.5181 15.7255 13.645 15.7048 13.7719C15.583 14.0956 15.3848 14.3381 15.0236 14.4069C14.95 14.4307 14.8708 14.4305 14.7973 14.4062Z" fill="#F6F8F9"/>
<path fill-rule="evenodd" clip-rule="evenodd" d="M14.8067 12.6955C14.7929 12.7224 14.7773 12.7468 14.7667 12.7737C14.7417 12.8337 14.7767 12.9324 14.7054 12.9518C14.6161 12.9762 14.5704 12.8849 14.5179 12.8262C14.4679 12.7762 14.4286 12.7212 14.4411 12.6455C14.4463 12.6229 14.4563 12.6016 14.4704 12.583C14.5236 12.5318 14.5848 12.5099 14.6567 12.5305C14.7254 12.5687 14.7817 12.6174 14.8067 12.6955Z" fill="#C7B71C"/>
<path fill-rule="evenodd" clip-rule="evenodd" d="M14.8067 12.6956C14.7192 12.6856 14.6648 12.6431 14.6567 12.5518C14.6513 12.5434 14.6478 12.5339 14.6464 12.524C14.645 12.514 14.6458 12.5039 14.6486 12.4943C14.6817 12.4418 14.7173 12.3943 14.7923 12.4212C14.8523 12.475 14.9511 12.5006 14.9348 12.6118C14.9254 12.6875 14.8623 12.6875 14.8067 12.6956Z" fill="#E9D017"/>
<path fill-rule="evenodd" clip-rule="evenodd" d="M14.793 12.4213C14.7512 12.4523 14.7086 12.4825 14.6655 12.5119C14.6489 12.4997 14.6357 12.4833 14.6274 12.4644C14.6193 12.4343 14.6204 12.4026 14.6305 12.3731C14.6499 12.3281 14.6705 12.2825 14.6805 12.235C14.6849 12.2263 14.691 12.2186 14.6984 12.2123C14.7058 12.2059 14.7144 12.2011 14.7237 12.1981C14.7674 12.1813 14.8305 12.125 14.8568 12.1825C14.8962 12.265 14.8374 12.3469 14.793 12.4213Z" fill="#F0D416"/>
<path fill-rule="evenodd" clip-rule="evenodd" d="M14.1624 12.5187C14.098 12.4725 14.0318 12.4237 14.1605 12.3756C14.2274 12.3512 14.2999 12.3375 14.3455 12.2769C14.4205 12.2975 14.4499 12.3512 14.4568 12.4231C14.4418 12.5012 14.3805 12.5206 14.3149 12.5381C14.2624 12.5519 14.2149 12.5106 14.1624 12.5187Z" fill="#CDBA19"/>
<path fill-rule="evenodd" clip-rule="evenodd" d="M14.353 12.2431C14.3486 12.1844 14.338 12.1025 14.3986 12.0869C14.4648 12.0713 14.5098 12.1431 14.5511 12.1944C14.618 12.2263 14.6348 12.285 14.6348 12.3519C14.6349 12.3731 14.6315 12.3942 14.6248 12.4144C14.5342 12.4875 14.4967 12.4081 14.4498 12.3544C14.4331 12.3062 14.3984 12.2664 14.353 12.2431Z" fill="#E0CA1A"/>
<path fill-rule="evenodd" clip-rule="evenodd" d="M14.4812 12.6455L14.5162 12.8262L14.3131 12.8724C14.2437 12.9043 14.2425 12.8543 14.2356 12.8087C14.2519 12.7671 14.2767 12.7295 14.3085 12.6982C14.3402 12.6668 14.3782 12.6425 14.42 12.6268C14.442 12.6249 14.464 12.6316 14.4812 12.6455Z" fill="#EED316"/>
<path fill-rule="evenodd" clip-rule="evenodd" d="M14.4813 12.6456C14.4669 12.6455 14.4525 12.6446 14.4381 12.6431C14.3781 12.6419 14.32 12.6831 14.2606 12.6469C14.2269 12.6056 14.1938 12.5625 14.1606 12.5213C14.205 12.4456 14.2619 12.4981 14.3131 12.5044C14.3838 12.5106 14.5081 12.415 14.485 12.5956L14.4813 12.6456Z" fill="#D7BE14"/>
<path fill-rule="evenodd" clip-rule="evenodd" d="M14.2625 12.6469C14.3206 12.6406 14.3781 12.505 14.44 12.6431C14.4063 12.7237 14.3256 12.7419 14.2638 12.7825C14.2375 12.7694 14.2331 12.7519 14.25 12.7287L14.2625 12.6469Z" fill="#F0D516"/>
<path fill-rule="evenodd" clip-rule="evenodd" d="M14.353 12.2431C14.4705 12.1725 14.4849 12.2456 14.4862 12.3381C14.5068 12.3637 14.5055 12.3931 14.4962 12.4225C14.4799 12.435 14.4599 12.4356 14.4405 12.4262C14.4099 12.3762 14.378 12.3275 14.3462 12.28C14.3438 12.2738 14.3431 12.2671 14.3444 12.2605C14.3456 12.254 14.3486 12.248 14.353 12.2431Z" fill="#F2D717"/>
<path fill-rule="evenodd" clip-rule="evenodd" d="M15.0811 14.13C15.0077 14.1638 14.9281 14.1818 14.8473 14.1828C14.7666 14.1839 14.6865 14.168 14.6123 14.1363C14.7679 14.1325 14.9254 14.1325 15.0811 14.13Z" fill="#2E6E8E"/>
<path fill-rule="evenodd" clip-rule="evenodd" d="M15.6999 13.3918C15.6086 13.4368 15.6849 13.5556 15.6086 13.6068V13.2687C15.7055 13.2768 15.6943 13.3406 15.6999 13.3918Z" fill="#2B6A89"/>
<path fill-rule="evenodd" clip-rule="evenodd" d="M15.7061 13.775L15.6992 13.3975C15.7326 13.4545 15.7507 13.5192 15.7519 13.5853C15.7531 13.6514 15.7373 13.7167 15.7061 13.775Z" fill="#2C6F90"/>
<path fill-rule="evenodd" clip-rule="evenodd" d="M14.6199 12.3762C14.5555 12.3325 14.5849 12.2518 14.553 12.1943L14.7242 12.1981L14.7049 12.2381C14.6894 12.2909 14.66 12.3386 14.6199 12.3762Z" fill="#A59310"/>
<path fill-rule="evenodd" clip-rule="evenodd" d="M14.7974 14.4062C14.8742 14.4062 14.9486 14.4063 15.0236 14.4075C14.9486 14.4644 14.8724 14.4612 14.7974 14.4062Z" fill="#0778B1"/>
<path fill-rule="evenodd" clip-rule="evenodd" d="M14.25 12.7288C14.2544 12.7456 14.26 12.7644 14.2638 12.7825C14.2488 12.8288 14.2707 12.8569 14.315 12.8731C14.2875 12.8938 14.2507 12.9331 14.2257 12.89C14.1957 12.84 14.2094 12.7788 14.25 12.7288Z" fill="#323713"/>
<path fill-rule="evenodd" clip-rule="evenodd" d="M21.9624 13.2831C21.8005 13.3662 21.818 13.5556 21.7299 13.6812C21.6818 13.7168 21.6511 13.7043 21.6386 13.6468C21.7249 13.5137 21.7736 13.3712 21.728 13.2087C21.6418 13.2356 21.6474 13.3212 21.5955 13.3637C21.553 13.3712 21.5236 13.3674 21.5499 13.3137C21.613 13.1574 21.5268 13.0143 21.5111 12.8656C21.493 12.7718 21.5749 12.7131 21.593 12.6324C21.5861 12.6212 21.5874 12.6093 21.5955 12.6018C21.6824 12.5618 21.7136 12.6456 21.7705 12.6737C21.8099 12.7018 21.853 12.7224 21.8911 12.7518C21.9605 12.8174 21.9049 12.8762 21.8749 12.9349C21.8555 12.9681 21.8543 12.9962 21.8911 13.0193C21.9076 13.0284 21.9223 13.0405 21.9343 13.0549C21.9443 13.0714 21.9509 13.0896 21.9536 13.1087C21.9653 13.166 21.9683 13.2248 21.9624 13.2831Z" fill="#DDC415"/>
<path fill-rule="evenodd" clip-rule="evenodd" d="M21.7367 12.7349C21.6892 12.6912 21.6423 12.6455 21.5942 12.6018C21.5736 12.5043 21.6486 12.3599 21.4505 12.3518C21.3886 12.348 21.4167 12.2737 21.4386 12.2249C21.4598 12.1812 21.5198 12.1555 21.5005 12.093C21.4886 12.0537 21.393 12.0293 21.468 11.9768C21.5136 11.9449 21.5655 11.9843 21.6042 12.0218C21.7161 12.0205 21.8323 11.9924 21.9173 12.0974C21.963 12.1105 22.0405 12.1143 22.0286 12.1693C22.0186 12.213 21.948 12.2449 21.888 12.2012C21.7836 12.2462 21.8686 12.3368 21.8392 12.4012C21.773 12.5043 21.8355 12.6443 21.7367 12.7349Z" fill="#E1C715"/>
<path fill-rule="evenodd" clip-rule="evenodd" d="M22.5812 13.5275C22.5756 13.4468 22.53 13.4093 22.4506 13.4018C22.4037 13.3862 22.345 13.3862 22.32 13.3275C22.2993 13.2794 22.2895 13.2273 22.2912 13.175C22.3218 13.0356 22.4381 13.0843 22.5243 13.0662C22.5249 13.0453 22.5211 13.0246 22.5133 13.0052C22.5054 12.9859 22.4936 12.9683 22.4787 12.9537C22.4437 12.8987 22.3881 12.8331 22.4581 12.7831C22.5231 12.7356 22.6106 12.6918 22.6943 12.7662C22.7069 12.7827 22.7172 12.8008 22.725 12.82C22.75 12.8943 22.7043 12.9787 22.7568 13.0493C22.8087 13.1837 22.7718 13.3181 22.7643 13.4525C22.72 13.4975 22.6737 13.5418 22.6281 13.5868C22.5856 13.5881 22.5537 13.5806 22.5812 13.5275Z" fill="#F1D616"/>
<path fill-rule="evenodd" clip-rule="evenodd" d="M22.6812 12.8288L22.6755 12.785C22.6801 12.7756 22.6865 12.7673 22.6943 12.7604C22.7021 12.7535 22.7113 12.7483 22.7212 12.745C22.8005 12.74 22.8793 12.735 22.9587 12.7325C23.1562 12.725 23.0368 12.8094 22.998 12.8719C22.9024 12.9356 22.8243 13.0088 22.8562 13.1406C22.9005 13.2663 22.838 13.3606 22.7655 13.4519C22.6655 13.3275 22.7449 13.1831 22.7237 13.0488C22.6674 12.9838 22.7355 12.8938 22.6812 12.8288Z" fill="#E0C715"/>
<path fill-rule="evenodd" clip-rule="evenodd" d="M22.7187 12.745C22.7049 12.7581 22.688 12.7719 22.673 12.785C22.588 12.7437 22.5349 12.8219 22.4687 12.8425C22.4937 12.8681 22.5174 12.8937 22.5424 12.9181C22.5993 12.9656 22.4868 13.055 22.5837 13.0937C22.5643 13.1181 22.628 13.2206 22.5249 13.1631C22.4399 13.1156 22.3712 13.0706 22.3155 13.19C22.2874 13.2556 22.2874 13.2556 22.2112 13.1937C22.207 13.1838 22.2037 13.1736 22.2012 13.1631V13.13C22.2512 12.9862 22.2918 12.8369 22.3593 12.6994C22.4793 12.7131 22.6143 12.6131 22.7187 12.745Z" fill="#E0C715"/>
<path fill-rule="evenodd" clip-rule="evenodd" d="M21.9124 13.0962V13.0525C21.8492 12.9806 21.8961 12.9375 21.9442 12.8862C22.0136 12.8143 21.9836 12.7031 22.0292 12.6175C22.0373 12.6108 22.0449 12.6035 22.0517 12.5956L22.2699 12.6456C22.2611 12.6775 22.238 12.7031 22.2274 12.7337C22.2342 12.7718 22.2686 12.7762 22.2924 12.7962C22.3242 12.9218 22.2242 13.0206 22.2274 13.1431L22.2286 13.1406C22.198 13.17 22.1674 13.165 22.1299 13.155C22.1036 13.1462 22.098 13.0206 22.0374 13.1393C22.0136 13.1843 21.9467 13.1368 21.9124 13.0962Z" fill="#D7BF14"/>
<path fill-rule="evenodd" clip-rule="evenodd" d="M21.9062 11.8875C22.0544 11.7969 22.1881 11.8412 22.3187 11.9275C22.345 11.9675 22.3619 12.0081 22.3425 12.0556C22.3381 12.0937 22.3188 12.1169 22.2794 12.125L22.0419 12.0594C21.9894 12.0081 21.9138 11.975 21.9062 11.8875Z" fill="#9D0202"/>
<path fill-rule="evenodd" clip-rule="evenodd" d="M21.7368 12.735C21.7531 12.6131 21.6737 12.4663 21.8231 12.3763C21.8299 12.3838 21.8356 12.3906 21.8412 12.3956C21.8424 12.4081 21.8449 12.4175 21.8449 12.4263C21.8468 12.415 21.8481 12.4044 21.8524 12.3906L21.8687 12.375L22.0524 12.5963L22.0437 12.6156C22.0174 12.7063 21.9424 12.7438 21.8674 12.7819C21.8231 12.7656 21.7799 12.7519 21.7368 12.735Z" fill="#CCB514"/>
<path fill-rule="evenodd" clip-rule="evenodd" d="M21.9062 11.8875C21.9793 11.9231 22.0493 11.9618 22.0424 12.0593C22.0024 12.0787 21.9468 12.0506 21.9162 12.0993C21.8068 12.104 21.6983 12.0778 21.603 12.0237C21.6962 11.9581 21.7849 11.8862 21.9062 11.8875Z" fill="#E22505"/>
<path fill-rule="evenodd" clip-rule="evenodd" d="M21.9125 13.0962C22.0169 13.1106 22.1338 13.0462 22.2282 13.14C22.2282 13.1569 22.2282 13.1731 22.2294 13.1875C22.2444 13.3169 22.1444 13.2744 22.0825 13.2862L21.9619 13.2825C21.8994 13.2331 21.8707 13.1744 21.9125 13.0962Z" fill="#EDD216"/>
<path fill-rule="evenodd" clip-rule="evenodd" d="M22.2274 13.1437C22.1755 13.0274 22.198 12.9237 22.273 12.8274C22.258 12.8106 22.2505 12.7943 22.2524 12.7724C22.2617 12.7299 22.283 12.6956 22.3255 12.6799C22.3424 12.6799 22.3549 12.6862 22.3617 12.7006C22.3986 12.8743 22.3249 13.0106 22.2274 13.1437Z" fill="#EDD216"/>
<path fill-rule="evenodd" clip-rule="evenodd" d="M22.3637 13.3232C22.3943 13.3488 22.4237 13.3757 22.4525 13.4013C22.3237 13.4075 22.2637 13.5175 22.1762 13.5869C22.14 13.5919 22.115 13.5882 22.1375 13.5419C22.1737 13.4759 22.19 13.4008 22.1843 13.3257C22.2431 13.2682 22.3043 13.2744 22.3637 13.3232Z" fill="#E2C915"/>
<path fill-rule="evenodd" clip-rule="evenodd" d="M22.3636 13.3231L22.1843 13.3256C22.1536 13.305 22.1036 13.3344 22.083 13.2875C22.1193 13.235 22.2136 13.2694 22.2299 13.1875C22.2593 13.195 22.2868 13.23 22.318 13.19C22.3705 13.2206 22.3618 13.2744 22.3636 13.3231Z" fill="#CEB713"/>
<path fill-rule="evenodd" clip-rule="evenodd" d="M22.5812 13.5275L22.6275 13.5862C22.5831 13.65 22.5368 13.7131 22.4925 13.7781C22.4437 13.8087 22.4006 13.8137 22.3662 13.7587L22.5812 13.5275Z" fill="#D3BB15"/>
<path fill-rule="evenodd" clip-rule="evenodd" d="M22.368 13.7562C22.4092 13.7637 22.4511 13.7694 22.4942 13.7756C22.5067 13.8669 22.4511 13.895 22.3767 13.9037C22.3342 13.9087 22.3036 13.8856 22.2923 13.8462C22.2748 13.7844 22.3261 13.7744 22.368 13.7562Z" fill="#C7220C"/>
<path fill-rule="evenodd" clip-rule="evenodd" d="M22.4425 12.15C22.5137 12.19 22.5925 12.2219 22.64 12.295C22.6481 12.3106 22.6456 12.3231 22.6312 12.3344C22.5143 12.3356 22.4312 12.2744 22.3562 12.1925C22.3762 12.16 22.4181 12.1713 22.4425 12.15Z" fill="#90020C"/>
<path fill-rule="evenodd" clip-rule="evenodd" d="M22.6311 12.3343L22.6399 12.2949C22.7261 12.3062 22.8105 12.3193 22.8967 12.3318C22.8049 12.3774 22.7174 12.4099 22.6311 12.3343Z" fill="#A10106"/>
<path fill-rule="evenodd" clip-rule="evenodd" d="M22.5437 12.0206L22.773 12.04C22.6555 12.1269 22.5718 12.1231 22.4824 12.0694C22.4912 12.0369 22.523 12.0369 22.5437 12.0206Z" fill="#870107"/>
<path fill-rule="evenodd" clip-rule="evenodd" d="M21.5494 13.5149C21.5594 13.588 21.5131 13.6018 21.455 13.598C21.4175 13.5943 21.3763 13.588 21.3788 13.538C21.3806 13.4943 21.4263 13.488 21.4538 13.4687C21.4969 13.4599 21.5325 13.4662 21.5494 13.5149Z" fill="#DA2406"/>
<path fill-rule="evenodd" clip-rule="evenodd" d="M21.638 13.6469C21.6599 13.6775 21.6936 13.685 21.7293 13.6812C21.7393 13.7469 21.7099 13.78 21.6461 13.7775C21.6061 13.7775 21.5693 13.7631 21.5668 13.7187C21.5643 13.6762 21.6061 13.6625 21.638 13.6469Z" fill="#C9260A"/>
<path fill-rule="evenodd" clip-rule="evenodd" d="M22.8556 13.1375C22.7906 12.9875 22.8556 12.9069 22.9975 12.8688C22.935 12.9513 22.8625 13.0269 22.8556 13.1375Z" fill="#DFC616"/>
<path fill-rule="evenodd" clip-rule="evenodd" d="M22.5437 12.0206L22.4824 12.0693C22.4424 12.0668 22.4018 12.0668 22.3618 12.0656L22.348 12.0812L22.3305 12.0687L22.3218 11.9249C22.3955 11.9574 22.4687 11.9906 22.5437 12.0206Z" fill="#C70000"/>
<path fill-rule="evenodd" clip-rule="evenodd" d="M22.3262 12.6787C22.3099 12.7131 22.2912 12.7456 22.2749 12.7812C22.2318 12.7581 22.1568 12.8375 22.1387 12.7375C22.1624 12.6787 22.2093 12.6519 22.2705 12.6462L22.3262 12.6787Z" fill="#E0C715"/>
<path fill-rule="evenodd" clip-rule="evenodd" d="M21.0598 11.8387C21.0667 11.718 21.0236 11.5912 21.0973 11.4774C21.0961 11.5987 21.1311 11.723 21.0598 11.8387Z" fill="#447BC8"/>
<path fill-rule="evenodd" clip-rule="evenodd" d="M22.0999 13.6956C22.0874 13.8006 22.0124 13.7943 21.9555 13.7531C21.893 13.7106 21.9474 13.6825 21.9918 13.6662C22.0318 13.66 22.0736 13.6493 22.0999 13.6956Z" fill="#C92D0A"/>
<path fill-rule="evenodd" clip-rule="evenodd" d="M20.97 12.9194C20.9769 12.7988 20.9337 12.6719 21.0075 12.5569C21.0056 12.6788 21.0406 12.8056 20.97 12.9194Z" fill="#447AC8"/>
<path fill-rule="evenodd" clip-rule="evenodd" d="M20.9248 13.4599C20.9317 13.3393 20.8886 13.213 20.9623 13.0974C20.9611 13.2193 20.9948 13.3462 20.9248 13.4599Z" fill="#447BC8"/>
<path fill-rule="evenodd" clip-rule="evenodd" d="M21.5492 13.515C21.5174 13.4993 21.4855 13.4818 21.4536 13.4687C21.4861 13.4162 21.518 13.3662 21.5492 13.3137C21.5648 13.3301 21.58 13.3468 21.5949 13.3637C21.6042 13.4212 21.5792 13.4687 21.5492 13.515Z" fill="#BEA816"/>
<path fill-rule="evenodd" clip-rule="evenodd" d="M21.0143 12.3787C21.0224 12.2581 20.9774 12.1319 21.053 12.0162C21.0518 12.1406 21.0849 12.265 21.0143 12.3787Z" fill="#447AC8"/>
<path fill-rule="evenodd" clip-rule="evenodd" d="M20.8794 13.9993C20.8863 13.8787 20.8444 13.7518 20.9188 13.6381C20.9169 13.7606 20.9507 13.8862 20.8794 13.9993Z" fill="#437BC8"/>
<path fill-rule="evenodd" clip-rule="evenodd" d="M22.3292 12.0699C22.3405 12.0674 22.3511 12.0674 22.3611 12.0662L22.443 12.1505C22.4317 12.1968 22.3917 12.1887 22.3586 12.193C22.3317 12.1712 22.3067 12.1455 22.2817 12.1237C22.2967 12.1049 22.3136 12.0868 22.3292 12.0699Z" fill="#F80000"/>
<path fill-rule="evenodd" clip-rule="evenodd" d="M21.5924 12.6312C21.6012 12.7219 21.5424 12.7875 21.5106 12.8644C21.4518 12.7556 21.5468 12.7019 21.5924 12.6312Z" fill="#CCB514"/>
<path fill-rule="evenodd" clip-rule="evenodd" d="M22.1 13.6956L21.9912 13.6662C22.04 13.625 22.0887 13.5819 22.1375 13.5419C22.15 13.5562 22.1637 13.5712 22.1762 13.5869C22.1668 13.6344 22.1543 13.6787 22.1 13.6956Z" fill="#C9B215"/>
<path fill-rule="evenodd" clip-rule="evenodd" d="M21.823 12.3762C21.7868 12.2968 21.7424 12.2124 21.888 12.2018C21.8437 12.2543 21.863 12.3155 21.8687 12.3749L21.8537 12.3905L21.8355 12.3918L21.8243 12.3762H21.823Z" fill="#CCB514"/>
<path fill-rule="evenodd" clip-rule="evenodd" d="M19.9243 12.1356C19.9624 12.0293 19.9274 11.9168 19.933 11.8099C19.8774 11.7012 19.9493 11.6831 20.0286 11.6693C20.1943 11.6349 20.3568 11.6399 20.5193 11.6806C20.5693 11.6756 20.6105 11.7012 20.6543 11.7218C20.728 11.7362 20.7449 11.7912 20.7468 11.8549C20.8318 11.9393 20.728 12.0174 20.743 12.0981C20.6379 12.2358 20.5138 12.3578 20.3743 12.4606L20.3605 12.4681L20.3474 12.4631C20.303 12.4181 20.2486 12.3787 20.2768 12.3031C20.2961 12.2805 20.3136 12.2564 20.3293 12.2312C20.2986 12.2412 20.3099 12.2762 20.288 12.2924C20.1686 12.4243 20.1174 12.2799 20.0418 12.2324C20.008 12.1931 19.9593 12.1737 19.9243 12.1356Z" fill="#E9CF17"/>
<path fill-rule="evenodd" clip-rule="evenodd" d="M19.4187 13.5469C19.263 13.5075 19.413 13.3537 19.3218 13.2894C19.4218 13.2244 19.2937 13.1794 19.308 13.1231C19.3412 13.0387 19.4312 13.0937 19.4799 13.0487C19.6505 13.0156 19.8218 13.0306 19.9924 13.0375C20.0955 13.0706 20.2293 13.0825 20.1524 13.25C20.2124 13.3537 20.1612 13.4487 20.133 13.5469C20.0024 13.6212 19.9718 13.8225 19.7793 13.8169L19.7193 13.8119C19.6412 13.7462 19.718 13.6956 19.743 13.6275C19.6718 13.6569 19.6524 13.7762 19.5524 13.725C19.4774 13.6856 19.4899 13.5856 19.4187 13.5469Z" fill="#E9D017"/>
<path fill-rule="evenodd" clip-rule="evenodd" d="M18.7624 12.1318C18.7474 12.0868 18.8124 12.0318 18.7461 11.9949C18.6317 11.9337 18.7361 11.9012 18.7611 11.8581C18.753 11.7656 18.8086 11.7274 18.8836 11.7018C19.0642 11.6431 19.2474 11.6199 19.4367 11.6581C19.4705 11.6681 19.5017 11.6774 19.5336 11.6924C19.503 11.8912 19.5699 12.1099 19.4049 12.2806C19.3336 12.3537 19.2724 12.4443 19.153 12.3624C19.1517 12.3549 19.1505 12.3468 19.1474 12.3418C19.1255 12.3037 19.1905 12.2612 19.1405 12.2343C19.133 12.2306 19.1124 12.2968 19.0874 12.3256C19.0261 12.3743 18.9599 12.3549 18.9392 12.2974C18.9055 12.2074 18.818 12.1906 18.7624 12.1318Z" fill="#ECD216"/>
<path fill-rule="evenodd" clip-rule="evenodd" d="M18.7625 12.1318C18.8568 12.1431 18.9437 12.1649 18.9837 12.2699C19.0025 12.3212 19.0418 12.3262 19.0818 12.2843C19.125 12.2674 19.1468 12.2918 19.1625 12.3268C19.3181 12.3449 19.4881 12.1668 19.4837 11.9887C19.4812 11.8924 19.4675 11.7943 19.5256 11.7081C19.6131 11.6949 19.5975 11.7449 19.5781 11.7949C19.6506 12.0099 19.5312 12.1843 19.4387 12.3518C19.345 12.5212 18.9818 12.4968 18.89 12.3249C18.8531 12.2537 18.7662 12.2199 18.7625 12.1318Z" fill="#C9B414"/>
<path fill-rule="evenodd" clip-rule="evenodd" d="M20.5124 11.7362C20.3668 11.6712 20.2081 11.7706 20.0631 11.6994C20.0324 11.6725 20.0424 11.6312 20.0268 11.5994C20.0018 11.5212 20.0087 11.4613 20.1118 11.4725C20.1631 11.4788 20.2143 11.4919 20.2599 11.4531C20.3368 11.4813 20.4118 11.5044 20.4937 11.49C20.5349 11.4988 20.5774 11.5044 20.6187 11.5131C20.6387 11.6144 20.4974 11.6362 20.5124 11.7362Z" fill="#7C7110"/>
<path fill-rule="evenodd" clip-rule="evenodd" d="M19.4187 13.5469C19.5831 13.475 19.4731 13.735 19.6093 13.6956C19.6706 13.6788 19.6275 13.6275 19.6331 13.5881C19.6456 13.51 19.7025 13.5319 19.7537 13.5369C19.7937 13.5406 19.8443 13.5075 19.8662 13.5675C19.8868 13.6213 19.8468 13.6494 19.8106 13.675C19.7593 13.7081 19.7093 13.74 19.7193 13.8119C19.5256 13.83 19.4243 13.7419 19.4187 13.5469Z" fill="#B4A011"/>
<path fill-rule="evenodd" clip-rule="evenodd" d="M20.375 12.4606C20.4631 12.3044 20.5975 12.1956 20.7438 12.0981C20.7 12.3019 20.5725 12.415 20.375 12.4606Z" fill="#CFBA17"/>
<path fill-rule="evenodd" clip-rule="evenodd" d="M20.4943 11.49C20.4887 11.6244 20.3856 11.5556 20.3275 11.5631C20.2493 11.5706 20.2525 11.5094 20.2606 11.4531C20.3693 11.2738 20.4318 11.3838 20.4943 11.49Z" fill="#E3CA16"/>
<path fill-rule="evenodd" clip-rule="evenodd" d="M20.2919 12.2844L20.3475 12.4625C20.2194 12.4469 20.0988 12.4212 20.0375 12.2856C19.98 12.2431 19.9888 12.2125 20.0569 12.1931C20.1363 12.2225 20.1763 12.3506 20.2931 12.2856L20.2919 12.2844Z" fill="#CFBA17"/>
<path fill-rule="evenodd" clip-rule="evenodd" d="M20.1499 13.2499C20.1305 13.1831 20.1499 13.0793 20.0236 13.0999C19.9836 13.0487 19.8974 13.1024 19.8668 13.0293C19.8611 13.0093 19.8611 12.9881 19.8668 12.9681C19.8771 12.9495 19.8925 12.9343 19.9111 12.9243C19.983 12.9087 20.053 12.8656 20.128 12.9074C20.1368 12.9562 20.0368 13.0187 20.1293 13.0506C20.2949 13.1074 20.178 13.1793 20.1499 13.2499Z" fill="#686416"/>
<path fill-rule="evenodd" clip-rule="evenodd" d="M20.5125 11.7362C20.4482 11.6144 20.5888 11.59 20.6194 11.5131C20.6469 11.4875 20.6807 11.4619 20.715 11.485C20.7532 11.5094 20.7375 11.545 20.7194 11.5787C20.6988 11.6156 20.6832 11.6556 20.665 11.695C20.6782 11.7181 20.6738 11.7344 20.6525 11.745C20.6057 11.7425 20.5588 11.74 20.5125 11.7362Z" fill="#A99611"/>
<path fill-rule="evenodd" clip-rule="evenodd" d="M19.7761 13.8187C19.8686 13.7418 20.0067 13.71 20.0317 13.5587C20.0386 13.5137 20.0942 13.5462 20.1299 13.5487C20.0455 13.6075 20.0686 13.7318 19.9674 13.7918C19.898 13.8337 19.848 13.8606 19.7761 13.8187Z" fill="#A39E23"/>
<path fill-rule="evenodd" clip-rule="evenodd" d="M19.0305 11.4656C19.0405 11.4534 19.0513 11.4419 19.063 11.4312C19.1492 11.3699 19.1961 11.4349 19.2492 11.4874C19.263 11.4999 19.2767 11.5118 19.2892 11.5243C19.2317 11.6843 19.1292 11.6243 19.028 11.5818C19.0011 11.5424 19.003 11.5031 19.0305 11.4656Z" fill="#F1D616"/>
<path fill-rule="evenodd" clip-rule="evenodd" d="M19.0325 11.5644C19.1188 11.5519 19.2131 11.6012 19.2894 11.5244L19.3544 11.495C19.4013 11.5181 19.4569 11.4987 19.5025 11.5256L19.4763 11.6062C19.4627 11.6245 19.4452 11.6395 19.425 11.65C19.3031 11.6756 19.175 11.6319 19.0525 11.6756C19.0144 11.6719 18.9906 11.6512 18.9744 11.6181C18.9738 11.58 18.9838 11.5506 19.0325 11.5644Z" fill="#72650B"/>
<path fill-rule="evenodd" clip-rule="evenodd" d="M19.8456 12.8256C19.8581 12.84 19.8706 12.855 19.8831 12.8718C19.9137 12.8987 19.9137 12.9293 19.8875 12.9625C19.8643 12.9875 19.834 13.0048 19.8007 13.0119C19.7674 13.0191 19.7326 13.0158 19.7012 13.0025C19.681 12.9931 19.6638 12.9784 19.6512 12.96C19.6481 12.8831 19.7056 12.8462 19.7556 12.805C19.7711 12.8005 19.7875 12.8001 19.8033 12.8037C19.819 12.8073 19.8336 12.8148 19.8456 12.8256Z" fill="#D0BB17"/>
<path fill-rule="evenodd" clip-rule="evenodd" d="M18.8562 11.6449C18.8103 11.5966 18.7653 11.5474 18.7212 11.4974C18.8037 11.4399 18.8724 11.4887 18.9424 11.5181C18.9774 11.5537 18.9443 11.5899 18.9399 11.6281C18.9297 11.6448 18.916 11.6593 18.8999 11.6706C18.8768 11.6743 18.8631 11.6681 18.8562 11.6449Z" fill="#A8A324"/>
<path fill-rule="evenodd" clip-rule="evenodd" d="M19.4874 12.9119C19.5103 12.9164 19.534 12.9155 19.5565 12.909C19.579 12.9026 19.5997 12.891 19.6167 12.875C19.6542 12.8894 19.6374 12.9363 19.6636 12.9594L19.6567 12.9694C19.668 12.9794 19.673 12.99 19.6705 13.0025C19.6686 13.0156 19.6661 13.0206 19.6617 13.0206C19.613 13.06 19.5492 13.0525 19.4936 13.0669C19.4624 13.0556 19.4505 13.0287 19.4374 13.0031C19.4305 12.9887 19.4242 12.9738 19.4167 12.9594C19.4249 12.9219 19.4442 12.8988 19.4874 12.9119Z" fill="#76690B"/>
<path fill-rule="evenodd" clip-rule="evenodd" d="M18.8562 11.645C18.8693 11.6513 18.8825 11.655 18.8956 11.6563C18.9106 11.6688 18.9193 11.6831 18.9231 11.7013C18.9206 11.7181 18.9116 11.7334 18.8981 11.7438C18.8131 11.735 18.8012 11.8106 18.7618 11.8588C18.5393 11.6756 18.845 11.7256 18.8562 11.645Z" fill="#80730E"/>
<path fill-rule="evenodd" clip-rule="evenodd" d="M19.8867 12.9618L19.8823 12.8712C19.9617 12.8956 20.0254 12.8393 20.0967 12.8312C20.1729 12.8212 20.1642 12.8631 20.1261 12.9068L19.8867 12.9618Z" fill="#A19314"/>
<path fill-rule="evenodd" clip-rule="evenodd" d="M18.5737 13.6325L18.5875 13.5469C18.6625 13.6775 18.6125 13.8194 18.625 13.9531C18.5544 13.8556 18.5962 13.7381 18.5737 13.6325Z" fill="#3895D7"/>
<path fill-rule="evenodd" clip-rule="evenodd" d="M19.4999 11.5249C19.4387 11.5724 19.3931 11.5506 19.3518 11.4943C19.5099 11.4287 19.5099 11.4287 19.4999 11.5249Z" fill="#D9C014"/>
<path fill-rule="evenodd" clip-rule="evenodd" d="M18.4875 12.3318C18.4275 12.2612 18.4556 12.1718 18.4375 12.0924C18.4431 12.0512 18.4488 12.0093 18.4525 11.9668C18.5238 12.0843 18.4787 12.2112 18.4875 12.3318Z" fill="#4184CA"/>
<path fill-rule="evenodd" clip-rule="evenodd" d="M18.5362 12.835C18.4593 12.7212 18.4968 12.5931 18.4962 12.4688C18.5737 12.585 18.5212 12.7144 18.5362 12.835Z" fill="#3997D9"/>
<path fill-rule="evenodd" clip-rule="evenodd" d="M19.4374 11.6118C19.4507 11.6111 19.4639 11.609 19.4768 11.6056C19.4962 11.675 19.723 11.6387 19.5768 11.795C19.5668 11.7618 19.5824 11.7131 19.5243 11.7081C19.4949 11.7056 19.4655 11.7043 19.4374 11.7031C19.4124 11.6731 19.4087 11.6425 19.4374 11.6118Z" fill="#2F513F"/>
<path fill-rule="evenodd" clip-rule="evenodd" d="M20.0249 11.6C20.0587 11.6256 20.0643 11.6612 20.0612 11.7C19.9749 11.6856 19.9168 11.705 19.9305 11.81C19.7968 11.6631 19.9855 11.6656 20.0249 11.6Z" fill="#135568"/>
<path fill-rule="evenodd" clip-rule="evenodd" d="M19.2492 11.4875L19.063 11.4312C19.1905 11.2312 19.2017 11.42 19.2492 11.4875Z" fill="#BAA917"/>
<path fill-rule="evenodd" clip-rule="evenodd" d="M19.6631 12.9593C19.615 12.9481 19.6268 12.9056 19.6162 12.875C19.6287 12.8581 19.6412 12.8418 19.6525 12.825C19.6862 12.7993 19.7187 12.7981 19.7525 12.8262C19.7531 12.8925 19.6956 12.9168 19.6631 12.9593Z" fill="#EED316"/>
<path fill-rule="evenodd" clip-rule="evenodd" d="M19.4874 12.9119L19.4181 12.9594C19.3918 12.9213 19.3224 12.8775 19.3712 12.8375C19.4287 12.7925 19.4762 12.84 19.4874 12.9119Z" fill="#908B1E"/>
<path fill-rule="evenodd" clip-rule="evenodd" d="M20.6562 11.7449C20.6588 11.7293 20.6644 11.7118 20.6675 11.6949C20.7938 11.6987 20.8394 11.7424 20.7506 11.8549C20.7185 11.8189 20.687 11.7822 20.6562 11.7449Z" fill="#B9A411"/>
<path fill-rule="evenodd" clip-rule="evenodd" d="M19.7523 12.8262C19.7186 12.8262 19.6861 12.8262 19.6523 12.825C19.7167 12.7162 19.7805 12.6868 19.8461 12.825C19.813 12.8262 19.7823 12.8262 19.7523 12.8262Z" fill="#B5A314"/>
<path fill-rule="evenodd" clip-rule="evenodd" d="M18.8999 11.6043C18.913 11.575 18.9287 11.5456 18.9424 11.5175C18.9718 11.4993 19.0037 11.4818 19.033 11.465C19.033 11.4993 19.0349 11.5306 19.0349 11.5637C19.0212 11.5781 19.0055 11.5906 18.9905 11.605C18.9599 11.6325 18.9287 11.6387 18.8999 11.6043Z" fill="#878019"/>
<path fill-rule="evenodd" clip-rule="evenodd" d="M20.0561 12.1931C20.0223 12.2175 20.0236 12.2518 20.0367 12.2856C19.9486 12.2731 19.9673 12.1818 19.9236 12.1368C19.968 12.155 20.028 12.1356 20.0561 12.1931Z" fill="#274C42"/>
<path fill-rule="evenodd" clip-rule="evenodd" d="M19.4374 13.0037L19.4849 13.0487C19.4987 13.0599 19.5024 13.0705 19.4974 13.0805C19.4906 13.0905 19.4849 13.0949 19.4812 13.0949C19.4212 13.1049 19.3631 13.113 19.3049 13.123C19.2843 13.0118 19.4337 13.0874 19.4374 13.0037Z" fill="#3A431F"/>
<path fill-rule="evenodd" clip-rule="evenodd" d="M25.0249 12.5124C24.9731 12.5893 24.9093 12.6762 24.8843 12.5087C24.8649 12.3718 24.7787 12.3268 24.6756 12.2856C24.6574 12.1449 24.8093 12.2712 24.8287 12.1893C24.8574 12.1831 24.8074 12.1712 24.8224 12.1956C24.8312 12.2112 24.8287 12.2162 24.8112 12.2137C24.7656 12.2049 24.6818 12.2506 24.7087 12.1406C24.7293 12.1006 24.8087 12.1049 24.7906 12.0356C24.7624 11.9306 24.7449 11.8306 24.9062 11.8306C24.9343 11.8687 24.9687 11.8856 25.0162 11.8756C25.0337 11.8873 25.0476 11.9038 25.0562 11.9231C25.0781 12.0512 25.0093 12.1831 25.0712 12.3112C25.079 12.3816 25.0627 12.4525 25.0249 12.5124Z" fill="#E4CB17"/>
<path fill-rule="evenodd" clip-rule="evenodd" d="M25.295 11.9625C25.3382 11.9806 25.3813 11.9994 25.4232 12.0163C25.3744 12.0819 25.4982 12.0844 25.4669 12.1432C25.3494 12.2044 25.3757 12.3106 25.3838 12.4131C25.3919 12.5044 25.3544 12.5131 25.2894 12.4606C25.21 12.4019 25.1394 12.3375 25.1238 12.2338C25.1238 12.1969 25.1294 12.1457 25.1632 12.1432C25.32 12.1344 25.1238 12.0738 25.1782 12.0538C25.1925 11.9919 25.2338 11.9625 25.295 11.9625Z" fill="#E2C815"/>
<path fill-rule="evenodd" clip-rule="evenodd" d="M25.2948 11.9625C25.2611 11.9993 25.2286 12.0343 25.1961 12.0712C24.9948 12.2018 25.0786 11.9818 25.0242 11.9318L25.0186 11.8768C25.0211 11.8706 25.0229 11.8625 25.0273 11.8587C25.0936 11.8087 25.1504 11.6925 25.2298 11.7231C25.3086 11.755 25.2892 11.8756 25.2948 11.9625Z" fill="#D2BD18"/>
<path fill-rule="evenodd" clip-rule="evenodd" d="M25.025 12.5124C24.975 12.4524 25.0413 12.3893 25.0188 12.3268C25.033 12.3149 25.0499 12.3064 25.0681 12.3022C25.0862 12.2979 25.1051 12.298 25.1232 12.3024C25.1938 12.3437 25.1994 12.3962 25.1525 12.4587C25.1094 12.4762 25.0675 12.4943 25.025 12.5124Z" fill="#F4D817"/>
<path fill-rule="evenodd" clip-rule="evenodd" d="M25.1562 12.4606C25.1574 12.4081 25.1549 12.3569 25.1018 12.3262C25.0856 12.2762 25.0881 12.2369 25.1562 12.2406C25.2149 12.3044 25.2799 12.365 25.2912 12.4606C25.27 12.4702 25.247 12.4752 25.2237 12.4752C25.2004 12.4752 25.1774 12.4702 25.1562 12.4606Z" fill="#EFD416"/>
<path fill-rule="evenodd" clip-rule="evenodd" d="M24.7112 12.1418C24.7237 12.2125 24.7974 12.1818 24.8343 12.215C24.7968 12.2737 24.6993 12.1981 24.6774 12.2868C24.6456 12.2818 24.5881 12.3012 24.5912 12.2562C24.5968 12.1968 24.6593 12.17 24.7112 12.1418Z" fill="#A69411"/>
<path fill-rule="evenodd" clip-rule="evenodd" d="M24.9087 11.8318C24.7737 11.8449 24.8018 11.9512 24.7931 12.0368C24.7431 11.9574 24.7093 11.8705 24.7737 11.7937C24.7999 11.7618 24.8724 11.7849 24.9087 11.8318Z" fill="#687E3D"/>
<path fill-rule="evenodd" clip-rule="evenodd" d="M25.4667 12.1431C25.4304 12.1075 25.3823 12.0793 25.4229 12.0162C25.4667 12.015 25.5167 12.015 25.5342 12.06C25.5536 12.11 25.5129 12.1331 25.4667 12.1431Z" fill="#D8C116"/>
<path fill-rule="evenodd" clip-rule="evenodd" d="M24.525 13.9518C24.5331 13.9387 24.5412 13.9274 24.55 13.9124C24.5175 13.8256 24.4512 13.8368 24.3812 13.8512C24.2325 13.8599 24.085 13.8681 23.9337 13.8781C23.9337 13.7718 24.0294 13.8318 24.0569 13.7706C23.9431 13.6243 23.7581 13.7193 23.5581 13.6412C23.6875 13.6168 23.7581 13.6043 23.8262 13.5899C23.8206 13.4349 23.6475 13.4724 23.5944 13.3681C23.735 13.2706 23.8156 13.2837 23.9575 13.4143C24.1294 13.5718 24.3825 13.6612 24.6337 13.6681C24.9244 13.6768 25.1687 13.8449 25.4487 13.8899C25.4887 13.8962 25.54 13.9268 25.525 13.9793C25.5087 14.0462 25.4475 14.0462 25.3975 14.0243C25.2831 13.9756 25.1725 13.9181 25.055 13.8606C25.0094 13.9862 25.1194 14.0206 25.155 14.0924C25.1787 14.1412 25.2581 14.2168 25.1594 14.2599C25.0437 14.3087 25.1219 14.1893 25.0919 14.1624C24.9787 14.0731 24.8612 13.9974 24.7094 13.9987C24.6406 14.0131 24.5594 14.0731 24.525 13.9518Z" fill="#040000"/>
<path fill-rule="evenodd" clip-rule="evenodd" d="M24.525 13.9519C24.5731 14.0156 24.6481 13.9825 24.7093 13.9994C24.5968 14.0387 24.485 14.0887 24.3762 13.9825C24.425 13.9325 24.4775 13.9556 24.525 13.9519Z" fill="#430000"/>
<path fill-rule="evenodd" clip-rule="evenodd" d="M24.3811 13.8499C24.4617 13.7574 24.5355 13.828 24.6105 13.8587C24.6467 13.8743 24.6574 13.8893 24.613 13.9037C24.5936 13.9112 24.5705 13.9099 24.5492 13.9112C24.4917 13.8912 24.4367 13.8705 24.3811 13.8499Z" fill="#E7E7E7"/>
<path fill-rule="evenodd" clip-rule="evenodd" d="M18.715 18.3187C18.715 17.6231 18.7194 16.9268 18.7113 16.2312C18.7094 16.0712 18.7431 16.0068 18.9194 16.0093C19.4744 16.0206 20.0269 16.0206 20.5813 16.0093C20.7581 16.0056 20.79 16.0731 20.7888 16.2306C20.7813 16.9274 20.7856 17.6237 20.7869 18.3193C20.7006 18.4087 20.5888 18.4106 20.4756 18.4106C19.9925 18.4143 19.51 18.4143 19.0263 18.4106C18.9144 18.4099 18.8019 18.4074 18.715 18.3187Z" fill="#FE0000"/>
<path fill-rule="evenodd" clip-rule="evenodd" d="M18.7148 18.3187H20.7867C20.7855 19.0219 20.783 19.7262 20.7886 20.4294C20.7886 20.5712 20.7561 20.6237 20.6036 20.6225C20.0351 20.6137 19.4665 20.6137 18.898 20.6225C18.7448 20.6237 18.7105 20.5712 18.7117 20.4294C18.718 19.7262 18.7148 19.0219 18.7148 18.3187Z" fill="#FEFEFE"/>
<path fill-rule="evenodd" clip-rule="evenodd" d="M22.9036 22.9606C22.9023 23.6494 22.8954 24.3363 22.9036 25.0263C22.9067 25.2044 22.8704 25.2738 22.6748 25.2681C22.1373 25.2556 21.5961 25.2581 21.0586 25.2681C20.8911 25.2719 20.8217 25.2375 20.8248 25.0481C20.8373 24.3538 20.8304 23.6563 20.8317 22.9606C20.9211 22.8713 21.0348 22.8713 21.1473 22.8713C21.6286 22.8688 22.1079 22.8688 22.5892 22.8713C22.7011 22.8719 22.8154 22.8719 22.9036 22.9606Z" fill="#FE0000"/>
<path fill-rule="evenodd" clip-rule="evenodd" d="M20.7874 22.9606C20.7862 23.6506 20.7793 24.3413 20.7906 25.0319C20.7937 25.2238 20.7337 25.2675 20.5499 25.2638C20.0171 25.2519 19.484 25.2519 18.9512 25.2638C18.7693 25.2675 18.7068 25.2238 18.7093 25.0319C18.7224 24.3413 18.7149 23.65 18.7149 22.9606C18.8043 22.8713 18.9181 22.8713 19.0306 22.8713C19.5118 22.8688 19.9912 22.8688 20.4724 22.8713C20.5849 22.8719 20.6987 22.8719 20.7874 22.9606Z" fill="#FEFEFE"/>
<path fill-rule="evenodd" clip-rule="evenodd" d="M18.6706 22.9606C18.6706 23.6563 18.665 24.3525 18.6737 25.0481C18.675 25.2081 18.6418 25.2725 18.465 25.2681C17.9121 25.2569 17.3591 25.2569 16.8062 25.2681C16.6293 25.2731 16.595 25.2094 16.5962 25.0481C16.6043 24.3538 16.5987 23.6575 16.5987 22.9606C16.6881 22.8713 16.8018 22.8713 16.9143 22.8713C17.3956 22.8688 17.8762 22.8688 18.3562 22.8713C18.4681 22.8719 18.5818 22.8719 18.6706 22.9606Z" fill="#FE0000"/>
<path fill-rule="evenodd" clip-rule="evenodd" d="M22.9036 22.9606H20.8317C20.8305 22.2574 20.8348 21.5543 20.828 20.8512C20.8261 20.7093 20.8611 20.6549 21.0142 20.6568C21.5823 20.6643 22.1505 20.6668 22.7198 20.6568C22.8723 20.6543 22.9042 20.7106 22.9042 20.8512C22.8986 21.5543 22.903 22.2574 22.9036 22.9606Z" fill="#FEFEFE"/>
<path fill-rule="evenodd" clip-rule="evenodd" d="M20.7875 22.9606H18.7157C18.7157 22.2687 18.7232 21.58 18.71 20.8894C18.7075 20.6962 18.77 20.6525 18.9519 20.6575C19.485 20.6687 20.0182 20.6687 20.5507 20.6575C20.7325 20.6525 20.7944 20.6969 20.7913 20.8894C20.7794 21.58 20.7863 22.2687 20.7875 22.9606Z" fill="#FE0000"/>
<path fill-rule="evenodd" clip-rule="evenodd" d="M18.6706 22.9606H16.5987C16.5987 22.2574 16.6031 21.5543 16.5974 20.8512C16.5962 20.7106 16.6293 20.6549 16.7824 20.6568C17.3506 20.6668 17.9193 20.6643 18.4881 20.6568C18.6406 20.6543 18.6743 20.7093 18.6731 20.8512C18.6668 21.5543 18.6706 22.2574 18.6706 22.9606Z" fill="#FEFEFE"/>
<path fill-rule="evenodd" clip-rule="evenodd" d="M16.5418 18.275H14.4962C14.4918 17.5706 14.4905 16.8662 14.4824 16.1618C14.4824 16.0425 14.5299 16.0068 14.6424 16.0081C15.228 16.0118 15.813 16.0118 16.3968 16.0081C16.5093 16.0068 16.5593 16.0425 16.558 16.1618C16.5487 16.8662 16.5474 17.5706 16.5418 18.275Z" fill="#FE0000"/>
<path fill-rule="evenodd" clip-rule="evenodd" d="M14.4374 12.4262C14.4504 12.4213 14.4638 12.4175 14.4774 12.4149C14.5274 12.4543 14.5993 12.4224 14.648 12.4687C14.6536 12.4825 14.6582 12.4967 14.6618 12.5112L14.653 12.5512L14.4836 12.5949C14.463 12.4949 14.3811 12.5105 14.3118 12.5037C14.3543 12.4787 14.3974 12.453 14.4374 12.4262Z" fill="#9E8C0F"/>
<path fill-rule="evenodd" clip-rule="evenodd" d="M14.6199 12.3762C14.6155 12.3105 14.6186 12.248 14.7049 12.238C14.7836 12.3149 14.7117 12.343 14.6605 12.3762C14.6455 12.398 14.6311 12.3968 14.6192 12.3749L14.6199 12.3762Z" fill="#F4D917"/>
<path fill-rule="evenodd" clip-rule="evenodd" d="M14.6186 12.375C14.6317 12.3763 14.6461 12.3763 14.6598 12.3763L14.6511 12.4688C14.5911 12.4613 14.5217 12.4788 14.4805 12.415L14.4861 12.3381C14.5317 12.3456 14.5455 12.465 14.6186 12.375Z" fill="#AF9B10"/>
<path fill-rule="evenodd" clip-rule="evenodd" d="M21.8673 12.7812C21.8848 12.6825 21.9673 12.6519 22.0436 12.615C22.113 12.7956 22.013 12.9237 21.913 13.0519H21.8673C21.8161 13.0175 21.8255 12.965 21.8242 12.915C21.8242 12.8656 21.9217 12.8487 21.8673 12.7812Z" fill="#EFD416"/>
<path fill-rule="evenodd" clip-rule="evenodd" d="M21.8243 12.9156C21.8718 12.9488 21.8674 13.0025 21.8674 13.0525C21.8424 13.0881 21.8043 13.0975 21.778 13.0638C21.7318 12.9975 21.7818 12.9556 21.8243 12.9156Z" fill="#D1B914"/>
<path fill-rule="evenodd" clip-rule="evenodd" d="M21.698 12.1537L21.6449 12.1793C21.6385 12.1633 21.6316 12.1475 21.6243 12.1318C21.6436 12.1256 21.6624 12.1193 21.683 12.1162C21.6849 12.1162 21.6911 12.1368 21.698 12.1537Z" fill="#BAA511"/>
<path fill-rule="evenodd" clip-rule="evenodd" d="M22.5873 13.0937C22.4192 13.0706 22.4961 12.9925 22.5461 12.9181C22.6067 12.9656 22.5842 13.0331 22.5873 13.0937Z" fill="#CFB813"/>
<path fill-rule="evenodd" clip-rule="evenodd" d="M22.6812 12.8287C22.7487 12.8925 22.7162 12.9737 22.7237 13.0487C22.6949 13.055 22.6474 13.0987 22.6505 13.0269C22.653 12.9594 22.6699 12.895 22.6812 12.8287Z" fill="#D0B813"/>
<path fill-rule="evenodd" clip-rule="evenodd" d="M22.1386 12.7374C22.1736 12.7887 22.2467 12.7081 22.2749 12.7812C22.2736 12.7956 22.2736 12.8093 22.2736 12.8262C22.2217 12.8068 22.1092 12.8799 22.1386 12.7374Z" fill="#F4D817"/>
<path fill-rule="evenodd" clip-rule="evenodd" d="M21.8242 12.3762C21.8348 12.3792 21.8448 12.3841 21.8536 12.3906C21.8624 12.4456 21.8886 12.5018 21.848 12.5581C21.7617 12.5056 21.8255 12.4368 21.8242 12.3762Z" fill="#F1D617"/>
<path fill-rule="evenodd" clip-rule="evenodd" d="M20.293 12.2857C20.278 12.2407 20.1842 12.2294 20.2286 12.1625C20.2667 12.105 20.3386 12.1269 20.3942 12.1232C20.4336 12.1219 20.4605 12.1625 20.453 12.2038C20.4336 12.2919 20.3599 12.2844 20.2917 12.2844L20.293 12.2857Z" fill="#BEA812"/>
<path fill-rule="evenodd" clip-rule="evenodd" d="M20.5205 11.9249C20.5153 11.9388 20.5054 11.9503 20.4924 11.9576C20.4795 11.9648 20.4644 11.9671 20.4499 11.9643C20.418 11.9593 20.3899 11.9387 20.4124 11.908C20.4249 11.8899 20.4637 11.8837 20.4899 11.8824C20.5124 11.8812 20.5337 11.8943 20.5205 11.9249Z" fill="#907F0E"/>
<path fill-rule="evenodd" clip-rule="evenodd" d="M19.7149 13.3712C19.6268 13.3812 19.5855 13.3343 19.5843 13.2762C19.5824 13.1837 19.6836 13.1993 19.7336 13.1787C19.803 13.1506 19.8649 13.2349 19.8718 13.2862C19.8936 13.4506 19.7086 13.2343 19.7149 13.3712Z" fill="#AF9B10"/>
<path fill-rule="evenodd" clip-rule="evenodd" d="M19.4812 13.0949L19.4856 13.0487L19.6525 13.0074C19.7318 13.0187 19.8093 12.9474 19.8875 13.0087C19.9331 13.0381 19.9787 13.0687 20.0237 13.0999L19.4812 13.0949Z" fill="#6F630B"/>
<path fill-rule="evenodd" clip-rule="evenodd" d="M19.4374 11.6118V11.703C19.2568 11.7174 19.0761 11.7312 18.8955 11.743C18.8976 11.7269 18.8986 11.7106 18.8986 11.6943C18.9399 11.6699 18.9749 11.6199 19.0336 11.6543C19.1624 11.5799 19.303 11.623 19.4374 11.6118Z" fill="#8C7C0D"/>
<path fill-rule="evenodd" clip-rule="evenodd" d="M19.1613 12.3275C19.1347 12.3128 19.1078 12.2986 19.0806 12.285C19.0531 12.2275 19.0013 12.1568 19.1088 12.1362C19.1556 12.1262 19.2263 12.0825 19.2669 12.1518C19.3325 12.265 19.1963 12.2675 19.1613 12.3275Z" fill="#B7A211"/>
<path fill-rule="evenodd" clip-rule="evenodd" d="M19.0762 11.8387C19.1543 11.7862 19.2237 11.795 19.2806 11.8743C19.2431 11.955 19.1693 11.9143 19.1125 11.9243C19.0756 11.9387 19.0637 11.9168 19.0537 11.8862C19.055 11.8681 19.063 11.8512 19.0762 11.8387Z" fill="#B4A011"/>
<path fill-rule="evenodd" clip-rule="evenodd" d="M19.0761 11.8388V11.885C19.0455 11.9094 19.0149 11.9056 18.9874 11.8813C18.9536 11.8581 18.9649 11.8338 18.9899 11.8156C19.0261 11.7913 19.0555 11.8038 19.0761 11.8388Z" fill="#CFB813"/>
<path fill-rule="evenodd" clip-rule="evenodd" d="M18.988 11.8812L19.0768 11.885C19.0887 11.8981 19.1005 11.9119 19.1137 11.9244C19.0349 12.0131 19.0074 11.9619 18.988 11.8812Z" fill="#86770C"/>
<path fill-rule="evenodd" clip-rule="evenodd" d="M19.8869 13.0081C19.8087 12.9681 19.7312 13.1018 19.6519 13.0068C19.6568 12.9948 19.6584 12.9815 19.6562 12.9687L19.8869 12.9612V13.0081Z" fill="#A4910F"/>
<path fill-rule="evenodd" clip-rule="evenodd" d="M19.0337 11.6544C18.9891 11.669 18.9441 11.6824 18.8987 11.6944C18.8974 11.6819 18.8943 11.67 18.8931 11.655L18.8974 11.6038L18.9881 11.605C19.0031 11.6231 19.0187 11.6388 19.0337 11.6544Z" fill="#B4A011"/>
<path fill-rule="evenodd" clip-rule="evenodd" d="M25.1561 12.2406L25.1017 12.3263C25.0755 12.3275 25.0492 12.3288 25.0223 12.3288C24.9267 12.1969 24.9892 12.065 25.0255 11.9319C25.0842 11.9756 25.0573 12.1263 25.1973 12.0713C25.2355 12.1044 25.3605 12.1363 25.1936 12.165C25.1767 12.17 25.1692 12.215 25.1561 12.2406Z" fill="#A28F0F"/>
</svg>
