<svg width="38" height="39" viewBox="0 0 38 39" fill="none" xmlns="http://www.w3.org/2000/svg">
<path d="M34.6812 32.8759C33.3623 31.5483 33.2392 29.486 33.6173 27.6532C33.7406 27.0556 33.805 26.4367 33.805 25.805C33.805 20.805 29.805 16.805 24.805 16.805C19.805 16.805 15.805 20.805 15.805 25.805C15.805 30.805 19.805 34.805 24.805 34.805C25.4376 34.805 26.057 34.7389 26.6554 34.6135C28.4647 34.2342 30.4937 34.3588 31.8114 35.6554L34.4072 38.2096C35.181 38.971 36.424 38.966 37.1916 38.1984V38.1984C37.9619 37.4281 37.9639 36.1799 37.1962 35.4071L34.6812 32.8759ZM24.805 30.805C23.4789 30.805 22.2071 30.2782 21.2695 29.3405C20.3318 28.4028 19.805 27.1311 19.805 25.805C19.805 24.4789 20.3318 23.2071 21.2695 22.2695C22.2071 21.3318 23.4789 20.805 24.805 20.805C26.1311 20.805 27.4029 21.3318 28.3405 22.2695C29.2782 23.2071 29.805 24.4789 29.805 25.805C29.805 27.1311 29.2782 28.4028 28.3405 29.3405C27.4029 30.2782 26.1311 30.805 24.805 30.805ZM7.36448 32.805C5.39863 32.805 3.805 31.2114 3.805 29.2455V18.4689C3.805 17.55 3.06004 16.805 2.14109 16.805V16.805C0.616138 16.805 -0.105498 14.9244 1.02799 13.9043L15.1291 1.21327C16.6504 -0.15583 18.9596 -0.155832 20.4809 1.21327L35.4808 14.7132C36.2982 15.4489 35.7778 16.805 34.6782 16.805V16.805C34.3504 16.805 34.0389 16.6689 33.8032 16.4411C32.3826 15.0678 30.6665 14.0413 28.7896 13.4386C28.1511 13.2335 27.5435 12.9302 27.0445 12.4821L20.4805 6.58763C18.9591 5.22135 16.6521 5.22262 15.1321 6.59059L9.12914 11.9933C8.28629 12.7518 7.805 13.8325 7.805 14.9664V26.3711C7.805 27.7153 8.89468 28.805 10.2389 28.805H10.8447C11.6184 28.805 12.2828 29.3527 12.5381 30.0831V30.0831C12.9729 31.3273 12.1363 32.805 10.8183 32.805H7.36448Z" fill="#337589"/>
</svg>
